<?xml version="1.0" standalone="no"?>
<!DOCTYPE svg PUBLIC "-//W3C//DTD SVG 20010904//EN"
 "http://www.w3.org/TR/2001/REC-SVG-20010904/DTD/svg10.dtd">
<svg version="1.0" xmlns="http://www.w3.org/2000/svg"
 width="479.000000pt" height="479.000000pt" viewBox="0 0 479.000000 479.000000"
 preserveAspectRatio="xMidYMid meet">
<metadata>
Created by potrace 1.11, written by Peter Selinger 2001-2013
</metadata>
<g transform="translate(0.000000,479.000000) scale(0.100000,-0.100000)"
fill="#000000" stroke="none">
<path d="M2256 4673 c-3 -4 -95 -12 -163 -16 -18 -1 -33 -4 -33 -7 0 -3 -12
-6 -27 -6 -27 -1 -67 -7 -128 -21 -16 -4 -33 -6 -37 -5 -5 1 -8 -2 -8 -6 0 -4
-8 -8 -17 -9 -27 -2 -65 -11 -112 -27 -22 -9 -41 -13 -41 -10 0 2 -10 -2 -22
-10 -13 -8 -26 -15 -31 -15 -20 0 -87 -25 -87 -33 0 -4 -3 -7 -7 -7 -8 1 -12
0 -30 -6 -5 -2 -18 -6 -30 -10 -13 -4 -23 -10 -23 -14 0 -4 -10 -7 -22 -8 -11
-1 -24 -6 -27 -11 -3 -5 -18 -12 -33 -16 -16 -3 -28 -11 -28 -17 0 -6 -4 -7
-10 -4 -5 3 -10 1 -10 -4 0 -6 -5 -11 -11 -11 -6 0 -23 -9 -39 -20 -15 -11
-30 -17 -33 -13 -4 3 -9 -2 -13 -11 -3 -9 -10 -14 -14 -11 -4 3 -20 -8 -36
-23 -15 -15 -24 -21 -20 -15 10 18 -102 -58 -142 -95 -18 -17 -34 -31 -35 -31
-13 1 -36 -15 -31 -22 3 -5 -1 -9 -8 -9 -16 0 -248 -225 -248 -240 0 -6 -4 -8
-10 -5 -5 3 -10 1 -10 -5 0 -6 -12 -23 -27 -37 -16 -14 -19 -19 -8 -12 11 7 5
-2 -12 -21 -64 -68 -93 -105 -93 -116 0 -7 -7 -15 -16 -18 -8 -3 -12 -10 -9
-16 3 -6 -1 -13 -9 -16 -9 -3 -14 -10 -11 -14 3 -4 -2 -11 -11 -14 -8 -3 -12
-10 -9 -16 3 -5 1 -10 -6 -10 -7 0 -9 -3 -6 -7 4 -3 0 -11 -8 -17 -7 -6 -15
-17 -17 -25 -2 -8 -10 -23 -18 -33 -8 -10 -13 -21 -12 -25 2 -3 -1 -9 -6 -12
-6 -3 -12 -13 -14 -21 -2 -8 -9 -21 -16 -28 -7 -8 -10 -17 -7 -22 3 -5 1 -10
-4 -12 -5 -1 -11 -10 -13 -18 -2 -8 -9 -21 -16 -28 -7 -8 -10 -18 -7 -23 4 -5
1 -9 -5 -9 -6 0 -8 -4 -5 -10 3 -5 1 -10 -4 -10 -6 0 -10 -3 -10 -7 1 -5 -4
-24 -12 -43 -7 -19 -12 -38 -11 -42 1 -5 -3 -8 -9 -8 -6 0 -9 -6 -6 -14 3 -8
2 -16 -3 -18 -5 -2 -11 -12 -13 -23 -2 -11 -7 -27 -10 -35 -12 -33 -33 -100
-41 -135 -2 -11 -5 -20 -6 -20 -2 0 -8 -29 -15 -65 -2 -14 -7 -36 -11 -50 -3
-14 -7 -38 -9 -55 -2 -16 -4 -30 -5 -30 -2 0 -4 -9 -5 -20 -1 -11 -6 -45 -11
-75 -10 -66 -10 -462 0 -540 7 -59 13 -95 16 -95 1 0 3 -13 5 -30 5 -49 29
-160 42 -195 4 -8 7 -21 9 -29 1 -8 6 -26 10 -40 4 -14 7 -29 6 -33 -1 -5 3
-8 9 -8 5 0 8 -4 5 -8 -3 -5 1 -20 9 -35 7 -14 11 -28 7 -31 -3 -3 0 -6 6 -6
6 0 9 -6 6 -14 -3 -8 0 -17 5 -21 6 -3 9 -11 6 -16 -4 -5 -1 -9 5 -9 6 0 8 -4
5 -10 -3 -5 -1 -10 5 -10 6 0 9 -4 5 -9 -3 -5 -1 -12 5 -16 6 -4 8 -11 5 -16
-4 -5 -1 -9 4 -9 6 0 10 -3 9 -7 -3 -10 43 -106 55 -114 5 -3 9 -9 9 -12 0
-19 12 -47 20 -47 5 0 7 -4 4 -8 -3 -5 3 -18 14 -29 10 -12 16 -24 13 -27 -4
-3 -1 -6 6 -6 7 0 9 -4 6 -10 -3 -5 -1 -10 4 -10 6 0 11 -6 11 -12 0 -7 11
-26 25 -42 14 -16 25 -35 25 -43 0 -7 5 -13 10 -13 6 0 10 -6 10 -14 0 -8 4
-16 8 -18 4 -1 36 -40 71 -86 35 -45 68 -82 73 -82 5 0 6 -4 3 -10 -3 -5 0
-10 8 -10 8 0 21 -8 28 -17 13 -17 12 -17 -6 -4 -11 8 -4 -1 15 -21 19 -20 39
-34 44 -31 5 4 6 2 3 -4 -9 -15 194 -201 214 -196 5 2 8 0 6 -5 -1 -4 2 -8 7
-9 5 -1 12 -5 15 -10 15 -19 64 -57 57 -43 -4 8 1 5 11 -6 18 -21 103 -79 103
-70 0 3 12 -6 26 -19 15 -14 30 -22 35 -19 5 3 9 0 9 -5 0 -6 5 -11 12 -11 6
0 19 -6 27 -14 9 -8 23 -16 31 -18 8 -2 21 -9 28 -16 8 -7 18 -10 23 -7 5 4 9
1 9 -5 0 -6 4 -8 10 -5 5 3 10 1 10 -4 0 -6 5 -11 11 -11 6 0 33 -11 60 -25
27 -13 49 -22 49 -20 0 2 12 -2 27 -10 15 -8 30 -12 35 -9 4 3 8 0 8 -6 0 -7
7 -10 15 -6 8 3 15 1 15 -4 0 -6 3 -9 8 -8 4 1 21 -4 37 -11 17 -7 40 -14 52
-14 13 -1 23 -6 23 -10 0 -4 6 -7 13 -6 6 1 19 -1 27 -4 8 -4 26 -9 40 -11 14
-3 25 -5 25 -7 0 -1 9 -3 20 -5 11 -1 31 -6 45 -9 14 -4 36 -9 50 -11 14 -2
39 -6 55 -10 172 -32 488 -36 670 -9 67 9 101 15 120 19 11 2 41 8 68 12 26 3
47 10 47 15 0 4 9 6 20 4 11 -2 20 -1 20 3 0 4 8 8 18 9 29 2 63 12 76 23 7 5
15 7 18 4 3 -3 23 3 44 12 22 9 44 18 49 19 6 1 12 3 15 4 3 2 14 4 25 6 11 2
21 8 23 14 2 5 10 7 18 4 8 -3 14 0 14 7 0 6 4 9 9 5 5 -3 17 3 27 12 10 10
20 17 23 16 10 -5 91 32 91 40 0 5 4 6 9 2 6 -3 14 3 20 12 6 10 11 15 11 11
0 -11 80 32 80 44 0 5 4 7 9 3 5 -3 16 1 24 9 8 8 17 13 19 10 3 -2 17 7 31
20 14 13 28 21 31 18 3 -3 6 0 6 6 0 7 6 12 14 12 8 0 22 10 31 23 8 12 18 21
20 19 6 -3 93 62 139 102 16 14 33 26 38 26 5 0 6 4 3 10 -3 5 1 10 9 10 8 0
18 5 22 12 5 7 3 8 -6 3 -9 -5 -11 -4 -6 3 4 7 12 12 18 12 6 0 33 23 62 52
28 28 45 48 37 43 -9 -5 -12 -4 -7 3 4 7 13 12 20 12 7 0 19 11 26 25 7 13 16
22 20 20 4 -2 15 11 26 30 10 18 22 32 26 29 4 -3 8 0 8 6 0 7 10 21 23 32 12
11 15 17 7 13 -13 -6 -13 -5 0 7 29 26 65 71 50 63 -8 -5 2 8 23 29 20 22 37
44 37 49 0 6 11 25 25 43 14 18 25 36 25 40 0 4 8 16 18 27 12 15 13 19 2 13
-13 -7 -13 -6 0 6 17 15 57 89 52 96 -2 3 1 8 6 11 6 3 12 13 14 21 2 8 9 21
16 28 7 8 10 18 7 23 -4 5 -1 9 5 9 6 0 8 5 5 10 -3 6 -1 10 6 10 7 0 10 3 7
6 -4 3 0 17 7 31 8 15 12 30 9 35 -3 4 -1 8 4 8 7 0 26 46 38 93 1 4 3 9 4 12
1 3 3 8 5 13 1 4 4 14 8 22 5 15 15 55 17 75 1 6 5 15 10 20 6 9 15 43 26 105
1 8 5 26 8 40 7 27 16 77 21 125 2 17 4 30 5 30 7 0 13 133 14 290 1 195 -6
281 -29 395 -4 19 -8 44 -10 55 -1 11 -3 20 -5 20 -1 0 -3 9 -5 20 -2 11 -6
36 -10 55 -4 19 -7 41 -7 48 -1 6 -4 12 -8 12 -4 0 -7 7 -8 15 -1 8 -3 22 -4
30 -1 8 -5 15 -9 15 -5 0 -6 6 -3 14 3 8 0 17 -5 21 -6 3 -9 11 -6 16 4 5 1 9
-5 9 -6 0 -9 4 -6 9 3 5 -2 26 -11 47 -9 22 -18 48 -20 59 -2 11 -8 22 -13 23
-6 2 -10 12 -10 21 0 10 -3 21 -7 25 -5 4 -8 11 -9 14 -2 13 -32 77 -41 85 -4
5 -8 12 -8 15 -2 20 -18 52 -26 52 -6 0 -8 4 -5 8 3 5 -2 18 -12 28 -9 11 -18
26 -20 34 -2 8 -10 20 -18 27 -9 6 -14 13 -12 15 6 8 -36 77 -44 72 -4 -3 -8
2 -8 10 0 8 -10 24 -22 36 -12 11 -18 20 -13 20 4 0 -2 9 -15 20 -13 11 -19
20 -14 20 5 0 2 6 -7 13 -8 7 -18 20 -22 30 -4 11 -12 15 -18 11 -7 -4 -9 -3
-5 4 3 6 -4 18 -16 26 -12 9 -18 16 -13 16 5 0 -1 9 -13 20 -12 12 -22 25 -22
31 0 6 -3 8 -7 6 -8 -4 -44 28 -39 35 2 2 -27 32 -62 68 -36 36 -59 56 -52 45
8 -11 -8 4 -35 33 -28 28 -55 52 -61 52 -7 0 -15 7 -18 16 -3 8 -10 12 -16 9
-5 -3 -10 1 -10 10 0 9 -4 14 -9 11 -5 -3 -12 1 -15 10 -3 8 -11 12 -16 9 -6
-4 -9 -3 -8 2 2 4 1 8 -2 8 -3 0 -12 6 -20 12 -47 39 -79 63 -85 63 -3 0 -21
11 -39 25 -18 14 -36 22 -39 18 -4 -3 -7 -1 -7 5 0 7 -7 12 -15 12 -8 0 -15 4
-15 8 0 5 -16 14 -35 22 -19 8 -35 18 -35 22 0 5 -4 7 -9 3 -5 -3 -12 -1 -16
5 -4 6 -11 8 -16 5 -5 -4 -9 -2 -9 2 0 5 -14 17 -31 27 -21 13 -29 14 -23 5 4
-7 -5 -4 -20 9 -16 12 -32 19 -37 16 -5 -3 -9 0 -9 6 0 7 -6 10 -14 7 -8 -3
-16 -1 -18 4 -2 5 -13 11 -25 12 -12 0 -19 5 -17 9 3 4 -2 9 -10 9 -17 2 -33
5 -41 9 -3 1 -8 3 -12 4 -5 1 -14 5 -20 9 -7 5 -18 5 -25 1 -7 -5 -8 -3 -3 6
6 10 4 12 -7 7 -9 -3 -19 -3 -22 1 -4 3 -12 7 -19 8 -7 2 -37 10 -67 19 -56
17 -85 23 -130 30 -14 1 -25 4 -25 5 0 5 -130 25 -230 36 -67 7 -343 12 -349
7z m-1395 -3940 c13 -16 12 -17 -3 -4 -10 7 -18 15 -18 17 0 8 8 3 21 -13z"/>
</g>
</svg>
